# xmcd
#
# Track frame offsets:
#	182
#	36865
#	57060
#	84822
#	103360
#	128737
#	162472
#	175562
#
# Disc length: 2554 seconds
#
# Revision: 0
# Processed by: cddbd v1.4PL0 Copyright (c) Steve Scherf et al.
# Submitted via: EZCDDA 4.3.3.2
#
DISCID=5c09f808
DTITLE=The Animals and Eric Burdon - Yes I Am Experienced
DYEAR=1900
DGENRE=
TTITLE0=Hey Gyp
TTITLE1=San Francisco night
TTITLE2=Monterey
TTITLE3=Yes, I am experienced
TTITLE4=Ginhouse blues
TTITLE5=Paint it black
TTITLE6=Maudie
TTITLE7=Inside looking out 
EXTD=
EXTT0=
EXTT1=
EXTT2=
EXTT3=
EXTT4=
EXTT5=
EXTT6=
EXTT7=
PLAYORDER=
